# xmcd
#
# Track frame offsets:
#	150
#	13542
#	36012
#	60982
#	75212
#	88415
#
# Disc length: 1515 seconds
#
# Revision: 1
# Processed by: cddbd v1.5.1PL0 Copyright (c) Steve Scherf et al.
# Submitted via: CDex 1.50Beta5
#
DISCID=3705e906
DTITLE=SLUGGER - PUNKOUT!!
DYEAR=1900
DGENRE=
TTITLE0=ダンスフロアー
TTITLE1=思ひ出涙ポロリ
TTITLE2=君と僕
TTITLE3=FLIGHT
TTITLE4=監獄ロック
TTITLE5=やさしい風
EXTD=
EXTT0=
EXTT1=
EXTT2=
EXTT3=
EXTT4=
EXTT5=
PLAYORDER=
